<mxfile host="app.diagrams.net" agent="Mozilla/5.0 (Windows NT 10.0; Win64; x64) AppleWebKit/537.36 (KHTML, like Gecko) Chrome/135.0.0.0 Safari/537.36 Edg/135.0.0.0" version="26.2.13">
  <diagram id="1T6Xrl9Im6O4qfdcZHXx" name="PÃ¡gina-1">
    <mxGraphModel dx="1420" dy="794" grid="1" gridSize="10" guides="1" tooltips="1" connect="1" arrows="1" fold="1" page="1" pageScale="1" pageWidth="827" pageHeight="1169" math="0" shadow="0">
      <root>
        <mxCell id="0" />
        <mxCell id="1" parent="0" />
        <mxCell id="3yyfKTXszkOxgrwp_yNW-1" value="" style="shape=waypoint;sketch=0;size=6;pointerEvents=1;points=[];fillColor=none;resizable=0;rotatable=0;perimeter=centerPerimeter;snapToPoint=1;" vertex="1" parent="1">
          <mxGeometry x="30" y="293.5" width="20" height="20" as="geometry" />
        </mxCell>
        <mxCell id="3yyfKTXszkOxgrwp_yNW-2" value="" style="endArrow=none;html=1;rounded=0;" edge="1" parent="1" source="3yyfKTXszkOxgrwp_yNW-1">
          <mxGeometry width="50" height="50" relative="1" as="geometry">
            <mxPoint x="400" y="563.5" as="sourcePoint" />
            <mxPoint x="310" y="303.5" as="targetPoint" />
          </mxGeometry>
        </mxCell>
        <mxCell id="3yyfKTXszkOxgrwp_yNW-3" value="S&lt;sub&gt;0&lt;/sub&gt;" style="text;html=1;align=center;verticalAlign=middle;resizable=0;points=[];autosize=1;strokeColor=none;fillColor=none;" vertex="1" parent="1">
          <mxGeometry y="288.5" width="40" height="30" as="geometry" />
        </mxCell>
        <mxCell id="3yyfKTXszkOxgrwp_yNW-4" value="" style="shape=waypoint;sketch=0;size=6;pointerEvents=1;points=[];fillColor=none;resizable=0;rotatable=0;perimeter=centerPerimeter;snapToPoint=1;" vertex="1" parent="1">
          <mxGeometry x="30" y="318.5" width="20" height="20" as="geometry" />
        </mxCell>
        <mxCell id="3yyfKTXszkOxgrwp_yNW-5" value="" style="endArrow=none;html=1;rounded=0;" edge="1" parent="1" source="3yyfKTXszkOxgrwp_yNW-4">
          <mxGeometry width="50" height="50" relative="1" as="geometry">
            <mxPoint x="400" y="588.5" as="sourcePoint" />
            <mxPoint x="310" y="328.5" as="targetPoint" />
          </mxGeometry>
        </mxCell>
        <mxCell id="3yyfKTXszkOxgrwp_yNW-6" value="S&lt;span style=&quot;font-size: 10px;&quot;&gt;&lt;sub&gt;1&lt;/sub&gt;&lt;/span&gt;" style="text;html=1;align=center;verticalAlign=middle;resizable=0;points=[];autosize=1;strokeColor=none;fillColor=none;" vertex="1" parent="1">
          <mxGeometry y="313.5" width="40" height="30" as="geometry" />
        </mxCell>
        <mxCell id="3yyfKTXszkOxgrwp_yNW-7" value="" style="shape=waypoint;sketch=0;size=6;pointerEvents=1;points=[];fillColor=none;resizable=0;rotatable=0;perimeter=centerPerimeter;snapToPoint=1;" vertex="1" parent="1">
          <mxGeometry x="30" y="343.5" width="20" height="20" as="geometry" />
        </mxCell>
        <mxCell id="3yyfKTXszkOxgrwp_yNW-8" value="" style="endArrow=none;html=1;rounded=0;" edge="1" parent="1" source="3yyfKTXszkOxgrwp_yNW-7">
          <mxGeometry width="50" height="50" relative="1" as="geometry">
            <mxPoint x="400" y="613.5" as="sourcePoint" />
            <mxPoint x="310" y="353.5" as="targetPoint" />
          </mxGeometry>
        </mxCell>
        <mxCell id="3yyfKTXszkOxgrwp_yNW-9" value="S&lt;span style=&quot;font-size: 10px;&quot;&gt;&lt;sub&gt;2&lt;/sub&gt;&lt;/span&gt;" style="text;html=1;align=center;verticalAlign=middle;resizable=0;points=[];autosize=1;strokeColor=none;fillColor=none;" vertex="1" parent="1">
          <mxGeometry y="338.5" width="40" height="30" as="geometry" />
        </mxCell>
        <mxCell id="3yyfKTXszkOxgrwp_yNW-10" value="" style="shape=waypoint;sketch=0;size=6;pointerEvents=1;points=[];fillColor=none;resizable=0;rotatable=0;perimeter=centerPerimeter;snapToPoint=1;" vertex="1" parent="1">
          <mxGeometry x="30" y="368.5" width="20" height="20" as="geometry" />
        </mxCell>
        <mxCell id="3yyfKTXszkOxgrwp_yNW-11" value="" style="endArrow=none;html=1;rounded=0;" edge="1" parent="1" source="3yyfKTXszkOxgrwp_yNW-10">
          <mxGeometry width="50" height="50" relative="1" as="geometry">
            <mxPoint x="400" y="638.5" as="sourcePoint" />
            <mxPoint x="310" y="378.5" as="targetPoint" />
          </mxGeometry>
        </mxCell>
        <mxCell id="3yyfKTXszkOxgrwp_yNW-12" value="S&lt;span style=&quot;font-size: 10px;&quot;&gt;&lt;sub&gt;3&lt;/sub&gt;&lt;/span&gt;" style="text;html=1;align=center;verticalAlign=middle;resizable=0;points=[];autosize=1;strokeColor=none;fillColor=none;" vertex="1" parent="1">
          <mxGeometry y="363.5" width="40" height="30" as="geometry" />
        </mxCell>
        <mxCell id="3yyfKTXszkOxgrwp_yNW-13" value="" style="shape=waypoint;sketch=0;size=6;pointerEvents=1;points=[];fillColor=none;resizable=0;rotatable=0;perimeter=centerPerimeter;snapToPoint=1;" vertex="1" parent="1">
          <mxGeometry x="30" y="393.5" width="20" height="20" as="geometry" />
        </mxCell>
        <mxCell id="3yyfKTXszkOxgrwp_yNW-14" value="" style="endArrow=none;html=1;rounded=0;" edge="1" parent="1" source="3yyfKTXszkOxgrwp_yNW-13">
          <mxGeometry width="50" height="50" relative="1" as="geometry">
            <mxPoint x="400" y="663.5" as="sourcePoint" />
            <mxPoint x="310" y="403.5" as="targetPoint" />
          </mxGeometry>
        </mxCell>
        <mxCell id="3yyfKTXszkOxgrwp_yNW-15" value="S&lt;sub&gt;4&lt;/sub&gt;" style="text;html=1;align=center;verticalAlign=middle;resizable=0;points=[];autosize=1;strokeColor=none;fillColor=none;" vertex="1" parent="1">
          <mxGeometry y="388.5" width="40" height="30" as="geometry" />
        </mxCell>
        <mxCell id="3yyfKTXszkOxgrwp_yNW-16" value="" style="shape=waypoint;sketch=0;size=6;pointerEvents=1;points=[];fillColor=none;resizable=0;rotatable=0;perimeter=centerPerimeter;snapToPoint=1;" vertex="1" parent="1">
          <mxGeometry x="30" y="418.5" width="20" height="20" as="geometry" />
        </mxCell>
        <mxCell id="3yyfKTXszkOxgrwp_yNW-17" value="" style="endArrow=none;html=1;rounded=0;" edge="1" parent="1" source="3yyfKTXszkOxgrwp_yNW-16">
          <mxGeometry width="50" height="50" relative="1" as="geometry">
            <mxPoint x="400" y="688.5" as="sourcePoint" />
            <mxPoint x="310" y="428.5" as="targetPoint" />
          </mxGeometry>
        </mxCell>
        <mxCell id="3yyfKTXszkOxgrwp_yNW-18" value="S&lt;sub&gt;5&lt;/sub&gt;" style="text;html=1;align=center;verticalAlign=middle;resizable=0;points=[];autosize=1;strokeColor=none;fillColor=none;" vertex="1" parent="1">
          <mxGeometry y="413.5" width="40" height="30" as="geometry" />
        </mxCell>
        <mxCell id="3yyfKTXszkOxgrwp_yNW-19" value="" style="shape=waypoint;sketch=0;size=6;pointerEvents=1;points=[];fillColor=none;resizable=0;rotatable=0;perimeter=centerPerimeter;snapToPoint=1;" vertex="1" parent="1">
          <mxGeometry x="30" y="443.5" width="20" height="20" as="geometry" />
        </mxCell>
        <mxCell id="3yyfKTXszkOxgrwp_yNW-20" value="" style="endArrow=none;html=1;rounded=0;" edge="1" parent="1" source="3yyfKTXszkOxgrwp_yNW-19">
          <mxGeometry width="50" height="50" relative="1" as="geometry">
            <mxPoint x="400" y="713.5" as="sourcePoint" />
            <mxPoint x="310" y="453.5" as="targetPoint" />
          </mxGeometry>
        </mxCell>
        <mxCell id="3yyfKTXszkOxgrwp_yNW-21" value="S&lt;sub&gt;6&lt;/sub&gt;" style="text;html=1;align=center;verticalAlign=middle;resizable=0;points=[];autosize=1;strokeColor=none;fillColor=none;" vertex="1" parent="1">
          <mxGeometry y="438.5" width="40" height="30" as="geometry" />
        </mxCell>
        <mxCell id="3yyfKTXszkOxgrwp_yNW-22" value="" style="shape=waypoint;sketch=0;size=6;pointerEvents=1;points=[];fillColor=none;resizable=0;rotatable=0;perimeter=centerPerimeter;snapToPoint=1;" vertex="1" parent="1">
          <mxGeometry x="30" y="468.5" width="20" height="20" as="geometry" />
        </mxCell>
        <mxCell id="3yyfKTXszkOxgrwp_yNW-23" value="" style="endArrow=none;html=1;rounded=0;" edge="1" parent="1" source="3yyfKTXszkOxgrwp_yNW-22">
          <mxGeometry width="50" height="50" relative="1" as="geometry">
            <mxPoint x="400" y="738.5" as="sourcePoint" />
            <mxPoint x="310" y="478.5" as="targetPoint" />
          </mxGeometry>
        </mxCell>
        <mxCell id="3yyfKTXszkOxgrwp_yNW-24" value="S&lt;sub&gt;7&lt;/sub&gt;" style="text;html=1;align=center;verticalAlign=middle;resizable=0;points=[];autosize=1;strokeColor=none;fillColor=none;" vertex="1" parent="1">
          <mxGeometry y="463.5" width="40" height="30" as="geometry" />
        </mxCell>
        <mxCell id="3yyfKTXszkOxgrwp_yNW-25" value="" style="shape=waypoint;sketch=0;size=6;pointerEvents=1;points=[];fillColor=none;resizable=0;rotatable=0;perimeter=centerPerimeter;snapToPoint=1;" vertex="1" parent="1">
          <mxGeometry x="30" y="493.5" width="20" height="20" as="geometry" />
        </mxCell>
        <mxCell id="3yyfKTXszkOxgrwp_yNW-26" value="" style="endArrow=none;html=1;rounded=0;" edge="1" parent="1" source="3yyfKTXszkOxgrwp_yNW-25">
          <mxGeometry width="50" height="50" relative="1" as="geometry">
            <mxPoint x="400" y="763.5" as="sourcePoint" />
            <mxPoint x="310" y="503.5" as="targetPoint" />
          </mxGeometry>
        </mxCell>
        <mxCell id="3yyfKTXszkOxgrwp_yNW-27" value="S&lt;sub&gt;8&lt;/sub&gt;" style="text;html=1;align=center;verticalAlign=middle;resizable=0;points=[];autosize=1;strokeColor=none;fillColor=none;" vertex="1" parent="1">
          <mxGeometry y="488.5" width="40" height="30" as="geometry" />
        </mxCell>
        <mxCell id="3yyfKTXszkOxgrwp_yNW-28" value="" style="shape=waypoint;sketch=0;size=6;pointerEvents=1;points=[];fillColor=none;resizable=0;rotatable=0;perimeter=centerPerimeter;snapToPoint=1;" vertex="1" parent="1">
          <mxGeometry x="30" y="518.5" width="20" height="20" as="geometry" />
        </mxCell>
        <mxCell id="3yyfKTXszkOxgrwp_yNW-29" value="" style="endArrow=none;html=1;rounded=0;" edge="1" parent="1" source="3yyfKTXszkOxgrwp_yNW-28">
          <mxGeometry width="50" height="50" relative="1" as="geometry">
            <mxPoint x="400" y="788.5" as="sourcePoint" />
            <mxPoint x="310" y="528.5" as="targetPoint" />
          </mxGeometry>
        </mxCell>
        <mxCell id="3yyfKTXszkOxgrwp_yNW-30" value="S&lt;sub&gt;9&lt;/sub&gt;" style="text;html=1;align=center;verticalAlign=middle;resizable=0;points=[];autosize=1;strokeColor=none;fillColor=none;" vertex="1" parent="1">
          <mxGeometry y="513.5" width="40" height="30" as="geometry" />
        </mxCell>
        <mxCell id="3yyfKTXszkOxgrwp_yNW-31" value="" style="shape=waypoint;sketch=0;size=6;pointerEvents=1;points=[];fillColor=none;resizable=0;rotatable=0;perimeter=centerPerimeter;snapToPoint=1;" vertex="1" parent="1">
          <mxGeometry x="30" y="543.5" width="20" height="20" as="geometry" />
        </mxCell>
        <mxCell id="3yyfKTXszkOxgrwp_yNW-32" value="" style="endArrow=none;html=1;rounded=0;" edge="1" parent="1" source="3yyfKTXszkOxgrwp_yNW-31">
          <mxGeometry width="50" height="50" relative="1" as="geometry">
            <mxPoint x="400" y="813.5" as="sourcePoint" />
            <mxPoint x="310" y="553.5" as="targetPoint" />
          </mxGeometry>
        </mxCell>
        <mxCell id="3yyfKTXszkOxgrwp_yNW-33" value="S&lt;sub&gt;10&lt;/sub&gt;" style="text;html=1;align=center;verticalAlign=middle;resizable=0;points=[];autosize=1;strokeColor=none;fillColor=none;" vertex="1" parent="1">
          <mxGeometry y="538.5" width="40" height="30" as="geometry" />
        </mxCell>
        <mxCell id="3yyfKTXszkOxgrwp_yNW-34" value="" style="shape=waypoint;sketch=0;size=6;pointerEvents=1;points=[];fillColor=none;resizable=0;rotatable=0;perimeter=centerPerimeter;snapToPoint=1;" vertex="1" parent="1">
          <mxGeometry x="30" y="568.5" width="20" height="20" as="geometry" />
        </mxCell>
        <mxCell id="3yyfKTXszkOxgrwp_yNW-35" value="" style="endArrow=none;html=1;rounded=0;" edge="1" parent="1" source="3yyfKTXszkOxgrwp_yNW-34">
          <mxGeometry width="50" height="50" relative="1" as="geometry">
            <mxPoint x="400" y="838.5" as="sourcePoint" />
            <mxPoint x="310" y="578.5" as="targetPoint" />
          </mxGeometry>
        </mxCell>
        <mxCell id="3yyfKTXszkOxgrwp_yNW-36" value="S&lt;sub&gt;11&lt;/sub&gt;" style="text;html=1;align=center;verticalAlign=middle;resizable=0;points=[];autosize=1;strokeColor=none;fillColor=none;" vertex="1" parent="1">
          <mxGeometry y="563.5" width="40" height="30" as="geometry" />
        </mxCell>
        <mxCell id="3yyfKTXszkOxgrwp_yNW-37" value="" style="shape=waypoint;sketch=0;size=6;pointerEvents=1;points=[];fillColor=none;resizable=0;rotatable=0;perimeter=centerPerimeter;snapToPoint=1;" vertex="1" parent="1">
          <mxGeometry x="30" y="593.5" width="20" height="20" as="geometry" />
        </mxCell>
        <mxCell id="3yyfKTXszkOxgrwp_yNW-38" value="" style="endArrow=none;html=1;rounded=0;" edge="1" parent="1" source="3yyfKTXszkOxgrwp_yNW-37">
          <mxGeometry width="50" height="50" relative="1" as="geometry">
            <mxPoint x="400" y="863.5" as="sourcePoint" />
            <mxPoint x="310" y="603.5" as="targetPoint" />
          </mxGeometry>
        </mxCell>
        <mxCell id="3yyfKTXszkOxgrwp_yNW-39" value="S&lt;sub&gt;12&lt;/sub&gt;" style="text;html=1;align=center;verticalAlign=middle;resizable=0;points=[];autosize=1;strokeColor=none;fillColor=none;" vertex="1" parent="1">
          <mxGeometry y="588.5" width="40" height="30" as="geometry" />
        </mxCell>
        <mxCell id="3yyfKTXszkOxgrwp_yNW-40" value="" style="shape=waypoint;sketch=0;size=6;pointerEvents=1;points=[];fillColor=none;resizable=0;rotatable=0;perimeter=centerPerimeter;snapToPoint=1;" vertex="1" parent="1">
          <mxGeometry x="30" y="618.5" width="20" height="20" as="geometry" />
        </mxCell>
        <mxCell id="3yyfKTXszkOxgrwp_yNW-41" value="" style="endArrow=none;html=1;rounded=0;" edge="1" parent="1" source="3yyfKTXszkOxgrwp_yNW-40">
          <mxGeometry width="50" height="50" relative="1" as="geometry">
            <mxPoint x="400" y="888.5" as="sourcePoint" />
            <mxPoint x="310" y="628.5" as="targetPoint" />
          </mxGeometry>
        </mxCell>
        <mxCell id="3yyfKTXszkOxgrwp_yNW-42" value="S&lt;sub&gt;13&lt;/sub&gt;" style="text;html=1;align=center;verticalAlign=middle;resizable=0;points=[];autosize=1;strokeColor=none;fillColor=none;" vertex="1" parent="1">
          <mxGeometry y="613.5" width="40" height="30" as="geometry" />
        </mxCell>
        <mxCell id="3yyfKTXszkOxgrwp_yNW-43" value="" style="shape=waypoint;sketch=0;size=6;pointerEvents=1;points=[];fillColor=none;resizable=0;rotatable=0;perimeter=centerPerimeter;snapToPoint=1;" vertex="1" parent="1">
          <mxGeometry x="30" y="643.5" width="20" height="20" as="geometry" />
        </mxCell>
        <mxCell id="3yyfKTXszkOxgrwp_yNW-44" value="" style="endArrow=none;html=1;rounded=0;" edge="1" parent="1" source="3yyfKTXszkOxgrwp_yNW-43">
          <mxGeometry width="50" height="50" relative="1" as="geometry">
            <mxPoint x="400" y="913.5" as="sourcePoint" />
            <mxPoint x="310" y="653.5" as="targetPoint" />
          </mxGeometry>
        </mxCell>
        <mxCell id="3yyfKTXszkOxgrwp_yNW-45" value="S&lt;sub&gt;14&lt;/sub&gt;" style="text;html=1;align=center;verticalAlign=middle;resizable=0;points=[];autosize=1;strokeColor=none;fillColor=none;" vertex="1" parent="1">
          <mxGeometry y="638.5" width="40" height="30" as="geometry" />
        </mxCell>
        <mxCell id="3yyfKTXszkOxgrwp_yNW-46" value="" style="shape=waypoint;sketch=0;size=6;pointerEvents=1;points=[];fillColor=none;resizable=0;rotatable=0;perimeter=centerPerimeter;snapToPoint=1;" vertex="1" parent="1">
          <mxGeometry x="30" y="668.5" width="20" height="20" as="geometry" />
        </mxCell>
        <mxCell id="3yyfKTXszkOxgrwp_yNW-47" value="" style="endArrow=none;html=1;rounded=0;" edge="1" parent="1" source="3yyfKTXszkOxgrwp_yNW-46">
          <mxGeometry width="50" height="50" relative="1" as="geometry">
            <mxPoint x="400" y="938.5" as="sourcePoint" />
            <mxPoint x="310" y="678.5" as="targetPoint" />
          </mxGeometry>
        </mxCell>
        <mxCell id="3yyfKTXszkOxgrwp_yNW-48" value="S&lt;sub&gt;15&lt;/sub&gt;" style="text;html=1;align=center;verticalAlign=middle;resizable=0;points=[];autosize=1;strokeColor=none;fillColor=none;" vertex="1" parent="1">
          <mxGeometry y="663.5" width="40" height="30" as="geometry" />
        </mxCell>
        <mxCell id="3yyfKTXszkOxgrwp_yNW-49" value="&lt;p&gt;C&lt;/p&gt;" style="rounded=0;whiteSpace=wrap;html=1;align=center;fontStyle=1;fontSize=46;fontFamily=Helvetica;" vertex="1" parent="1">
          <mxGeometry x="310" y="288.5" width="160" height="430" as="geometry" />
        </mxCell>
        <mxCell id="3yyfKTXszkOxgrwp_yNW-54" value="" style="shape=waypoint;sketch=0;size=6;pointerEvents=1;points=[];fillColor=none;resizable=0;rotatable=0;perimeter=centerPerimeter;snapToPoint=1;" vertex="1" parent="1">
          <mxGeometry x="30" y="693.5" width="20" height="20" as="geometry" />
        </mxCell>
        <mxCell id="3yyfKTXszkOxgrwp_yNW-55" value="" style="endArrow=none;html=1;rounded=0;" edge="1" parent="1" source="3yyfKTXszkOxgrwp_yNW-54">
          <mxGeometry width="50" height="50" relative="1" as="geometry">
            <mxPoint x="400" y="963.5" as="sourcePoint" />
            <mxPoint x="310" y="703.5" as="targetPoint" />
          </mxGeometry>
        </mxCell>
        <mxCell id="3yyfKTXszkOxgrwp_yNW-56" value="KA" style="text;html=1;align=center;verticalAlign=middle;resizable=0;points=[];autosize=1;strokeColor=none;fillColor=none;" vertex="1" parent="1">
          <mxGeometry y="688.5" width="40" height="30" as="geometry" />
        </mxCell>
        <mxCell id="3yyfKTXszkOxgrwp_yNW-64" value="" style="group" vertex="1" connectable="0" parent="1">
          <mxGeometry x="570" y="250" width="257" height="507" as="geometry" />
        </mxCell>
        <mxCell id="3yyfKTXszkOxgrwp_yNW-50" value="" style="endArrow=none;html=1;rounded=0;" edge="1" parent="3yyfKTXszkOxgrwp_yNW-64">
          <mxGeometry width="50" height="50" relative="1" as="geometry">
            <mxPoint y="179.9999999999999" as="sourcePoint" />
            <mxPoint y="180" as="targetPoint" />
          </mxGeometry>
        </mxCell>
        <mxCell id="3yyfKTXszkOxgrwp_yNW-51" value="" style="endArrow=none;html=1;rounded=0;" edge="1" parent="3yyfKTXszkOxgrwp_yNW-64">
          <mxGeometry width="50" height="50" relative="1" as="geometry">
            <mxPoint y="154.9999999999999" as="sourcePoint" />
            <mxPoint y="155" as="targetPoint" />
          </mxGeometry>
        </mxCell>
        <mxCell id="3yyfKTXszkOxgrwp_yNW-52" value="" style="endArrow=none;html=1;rounded=0;" edge="1" parent="3yyfKTXszkOxgrwp_yNW-64">
          <mxGeometry width="50" height="50" relative="1" as="geometry">
            <mxPoint y="230" as="sourcePoint" />
            <mxPoint y="230" as="targetPoint" />
          </mxGeometry>
        </mxCell>
        <mxCell id="3yyfKTXszkOxgrwp_yNW-53" value="" style="endArrow=none;html=1;rounded=0;" edge="1" parent="3yyfKTXszkOxgrwp_yNW-64">
          <mxGeometry width="50" height="50" relative="1" as="geometry">
            <mxPoint y="204.9999999999999" as="sourcePoint" />
            <mxPoint y="205" as="targetPoint" />
          </mxGeometry>
        </mxCell>
        <mxCell id="3yyfKTXszkOxgrwp_yNW-58" value="" style="group" vertex="1" connectable="0" parent="3yyfKTXszkOxgrwp_yNW-64">
          <mxGeometry width="257" height="257" as="geometry" />
        </mxCell>
        <mxCell id="3yyfKTXszkOxgrwp_yNW-59" value="" style="whiteSpace=wrap;html=1;aspect=fixed;" vertex="1" parent="3yyfKTXszkOxgrwp_yNW-58">
          <mxGeometry width="255" height="255" as="geometry" />
        </mxCell>
        <mxCell id="3yyfKTXszkOxgrwp_yNW-60" value="" style="shape=image;verticalLabelPosition=bottom;labelBackgroundColor=default;verticalAlign=top;aspect=fixed;imageAspect=0;image=data:image/png,iVBORw0KGgoAAAANSUhEUgAAASwAAAEsCAQAAADTdEb+AAAAAmJLR0QA/4ePzL8AABFLSURBVHja7Z1pmBTVvcb/vcwwU9U9wyI7g4ODyi4QEROuivoIiOIGNwqKBMWoCGiMkRi9KNEhirnggihwg4KRCy6QCAomMYoRRIwRIy7sqwPMFIvM9ADTy5sP0wy9zvRyurt6eH/nC108VL3l/2fV6VOnTosQQgghhBBCCCGEEEIIIYQQQgghhBBCCCGEEEIIIYQQQgghhBBCCCGEEEIIIYQQQgghhBBCCCGEEEIIIYQQQgghhBBCCCGEEEIIIYQQQgghhBBCUoVV7pLJGWi/FJ3/8RuxVvprPV2TkP52+QnnOslnARonFucrvat2wchAK8fwYwVrJI9FaJRa9cmQVgYMHMD1x5wfUy1qlQK1rnY5VksTFoNaKVdrqKvgPclhQRqLVgvMoJUBA/twWXXBSrGzKNRKcSvDwCp9BdWiVilQ6+Iq/W2xsTjZPG61WKVW/bBDyX72or+rYIlYWSBqBQNLIZimaF970M/lWES1qBUMDIagBBXK1OpbqS8UCwuVdVr1danU6p/QYYXgdWV73I0+lY45LNVprZWBn2MshkBwhcJ97kA3l2M2y3Uaa7UTTqzFGxBY8bnC/W5Hl0rteZbsNNXKQCkGwkAFOkMwXumet+HcqvxnWTbzMy7PvVn53IRiLIIBA9MgaIo9Sve+FlafDGThTsMr1h/RCeX+XpEOwQxesU4rnOJMzUDDRSit+/PPIOiWmj7WyfzEVBQ4Njg2SIF6tf4BO4rR2d86QiB4W/23wsD8xDQ0dXw15tjY486N0lS1WqNxZ9Dn/hBco3ocKzQ/MYlWG8cdq4CBCccdm6SFiCh7/LwZesgAw3wI7Pi3ypH3SPlJxmnm/ObOEycLdl+Nc4ucoU6tybgqbLpeawgmqntWGC0/ySgtHVvvORFYtPtr9J3SVo1aX6EA08O23gBBfhIDpUGzG+rLTzJGK8e2CSdCC/dwjb5b2vnVSmJScimKIGiHSdhUt+1bTEIBBIJWmIiyZOdjNZSfZITW+o5fnYhUvEdq9D3SPnm1UjyDNJb8JO20ceyaXBOtgI+6HXulg9nUCprzHmt+klY66t8/5K6viFM92gHpdFKt3mZ7Syee/CRtnKmVPeFuqJDT3doBKTGLWkHvFcabn6SFYn3/NE8sxZzh1SuksxnUCnoTOpH8JOWcrRlPeWIt6DNe7ZB086v1sinWbkg0P0kp52rGs954ivqSVzsk3UVExKq/1rtqCtLfhhyvW20mmfwkZXTRDs7yxHu9mOvVDkvPWrXkfnkyA22qf32sZPOTlNBVPzTbl8it6A8+/Yj0Yn4Skdyj832J9nLm+3KPMj+JTFIdaAHzE4pFsVgYikWxmJ9QLIrFwlAsisX8hGJRLBaGYlEs5icUi2KxMBSLYjE/oVgUi4WhWI1CrLcwARoEVhShCEVoDx0CwYosEGsZ7vW/U52HEpyHjijBcLxBsczyf/xjELSs+1SBN9E04qLZZrxilUKg1X1agW4Q/BT7KZYZxHopSCwDBp7EgiwR69UgsQxsQSsIfkuxzCDWvDCxtmB1loi1KEQsA3dC0J1imVOs7Om8h4s1HoJWFMt8Yq3AwiwWaw86QjCEYplNrO8wKAvFOuB/Cf89/BiCZviYYplFLEEucpELgWSdWIIW6IKOsEMgGITPONxgvivWZlyetbfCnXgZXZGLYdhAsczXx/pLVvexytAXgtb4jmKZTaxdURfKzo5vhUshEDxAsTjcoFasnRAIhlEsiqVWrM8hUX66jmKlWaw5ELTIUrEWhIl1GwRWrKFYmRdrCgR27MhKsX4LQX5d9q8wFgIbZvJbYaYL8xYmwgGBoCemRPwuZeZpMxP9k3wErXE2OqAAXXAL/sFxLHNcsTjRj1AsikWxmJ9iUSxCsSgWxWJ+ikWxCMWiWBSL+SkWxSIUi2JRLOanWBSLJIDV82HCZfkQVg/zk4jYhjuq/5ZgWZzVtpHMT6KWRq9+P4vLku35G/lV6/34yzLK/8/75FQK0t+sHtt1SvITs6gVVJbe2pGFPgPpbx+iwCXDks5PzKJWiFY/ZEYrAwY+gMMlVyWVn5hFrdWm0cqAgVXQquXKhPOTNKk1oqHSmEsrAwbehe6SSxPKT8yilvm0MmDgHWhVMjDu/MQsaplTq9qF4bQquTiu/MQsaq1GoUm1MmDgTWiV0j/m/MQsaq1GYbXt5pPjVmbTyoCB16FVSr+Y8pNMqlXoOrVK8lo0dQVq9aoCrT7BPeiFruiJ3rgac7AZY5NVy5d/VH7UYH6SebU+SpFWB/ALWDEa6/yf12AYBMVJy7rAl3dU+tabn5hFrVRodTkET4dsvQ1OBTfEV3zaEekRNT8xiVo3FroKXbYb1d4E74fghrCt+9AJZQrUmu/TDku3iPmJmdRSrdX7sELwSYS/eb6BlW1ibfO82iHpGpafmBJFWhkYDkGXFH9DfM6rG1LCopmf8/OPLlKiVQUKIBiR8sGH//Xq5VLMwpleLO0HNWJ9BYHg50HbtuLXGILLcBkG4SGKxVthIq12mdmRYdtfhkDwBG+Fpw35kq9SrV2wQHBJ2PavIRAsV955D8hPTITmXOtcK5pKtXpBoGFPyNZNEAhWKR5uCMlPTIKufzq8esSxgvWin1Ir2aeET0MgmJsisQIHSCPkJ2bQyrnup9XlqMDoascXUuDfmvS8hjL0hKAjdqdArMBHOlHykwxT6Phy5LFy/xDBz447vpFmqtT6F86E4JqgcXYVYgU+hK4nP8moVv+++VhFwOjT7ccd30rzOrWSfC/nawyBoA8Wo8L/U5uTIWiB9YqmzTSQn2SIpo6N4wLKUtsmHHdskhaqrloGVmE8eqEYPXAWSnAtXsReRRP9YshPMkAz5zd3nohUvPtqnFvkDHVqpWZqcoz5SZpp6dh6z4mo8xJq9J3S1mxqBb5MEUd+kkZaObZNOFFfER+u0XdLO1V9LdWvf8WZn6SJ1vqOB040VMiHa/Q90t4sagW+sJpAfpIG2jh2Ta6JpZiPuh17pcMptRaY4hX7BPOTFFOkf/+QO9aCTvVoB6RTptUKXBQkifwkhXTUyp6oiaeo093agbr5A31yM7yMUZL5SYoo1vZNc8d7vZjh0cqlM/OTaJytGU96ErkVzfRqh+rmETA/CSbv4LPeRHs5z3rzDjI/iQyX4yYsDMWiWMxPsSgWYWEoFsVifopFsQgLQ7EoFvNTLIpFWBiKRbGYn2JRLMLCUCyKxfwUaxUeRHsIBEX+1h4OCC7MOrGW4yYUozV6oh8ewga8i99QrMwW5v8gEOwPWPtgBnpklVg7cR1smIgvYcDAXryAtrDhboqV2cIsDxHLgIGhWSTWdpwDK14N2vYl2uEmipXZwqyIINZrWSTWNRDcGrZ1MYZQLPOJlT2d98UQCD6LkHYcxTKXWN9EXc/YjGINheCsiGk3USwzifU97sgqsQogUXqEHG4whVid0RmdUQx7PSuwm0+s2kUnR1Ms81+xdmB4Fom1EQLBHRQrG/pYH2eRWN/DCsH1FCsbxNoXdT1jM/axukPQnWJxuEF1/kcgEHweIe1uVFAs84k1PoJqZhRrO9pGvBnuw+1hv+FKsdIq1tsQCPYFbVuCMVkz8r4C+RBMDro+lWEkVvNWmNnCvBgydl2BhSjEn7PoIfRyFEHQHy9hPbbjn5iJgRH7iRQrbYVZhQfQAgKBhmIUoxhF0CBog/KsmjazB0/hIrRGLlrjQkzHTnbezVEYTvQjFItiUSzmp1gUi1AsikWxmJ9iUSxCsSgWxWJ+ikWxCMWiWBQr2/LbpYCyUCxV+fvIryx/zt1mcdf+lJ39SM5n8qKMlGYUpwEsvnUJl2UdLL5Gm98pv8jZIsj1/sQzDtMwE3MwA5MxAmfWCKw1tmVyMe2ph9xRTavXJFSWT9HClXdbo8yfI/fafrD6rvUtCptzasDABkxFJ7fA/pGcR4MUl2a9KbRKSf5z7F9YcKPvi3r/fTnmo8ht8cijYqdDykoTVJYu2r4m1elveT/I5UryBzPY5mrnXhHTXsowARaf7a/s1itSK6gsXbWDszxbkf62DLpLBiadP5gRFs8A77Y4FH0NeR77BmlKh5JWK6gs52oHZ3kMZKatgFYVv1r1aDXI4hnsLYszxXvI99jWSRM6FIWc22IpzXo0r865+5RWL3gzpVWdWhcnnD+YYtuRCzxlCaRYCptP5tKgJNQyl1YGDLwJrVL6J5Q/ZNzC9kEzz9cJpngMAhlKgxJUy3xaGTDwOrRK6Rd3/lBGCeYlnKEcfT223ZJLgxJQy5xaGTCwxJd/VH4UV/5QbLYt5yfVV1wJgdxNfxpQa20WaWXAwAJf3lHpG3P+cK4ULE4yw3957ZtoT/1q3R5amvVoXp0z/qRW+qHZPjNpZcDAKz7tiHSPKX8kFrdxl/tf2B0HQR4G4AYMQg+MxF/qrkljIdBxEQagOx4OG5OfB4FcQHviUCtUqxcT1GoZ7kUhah/n5qMNmqEEgzEVG5WoNd+nHZZuDeaPfCM8ckfAsKfgCv+fv8VQWOt+eGAXBFfCgIFZEFwdtpZNjlem0J2Y1VKlVW37HQR5+BcMGNiPP2EQBE3wmBK15nm1Q9K13vyR6SV4JWA/tjqxDJTjUpz625Ni1a7C9deQ4/fzWv5Gc2JUK6gsXZLVysCrEGhBW56CBYL7laj1nFc3pCRq/mjcJFgfRSwDawIWcjsl1vUQzA85+hjYD9CbWNQa19zVwpUzTp1WBhaFiWVgEgQWLFei1jNevUI6RcwfnV9KUI8pWCwDneoWcjsl1nkQhH5F+B+IT2z0Jia11GoVWaw9aA7BAEXd+BkerVyKw/LXx2P2oDMLFWsgBMuCxHoGglvCjjwdAj41jA9FWkUWy8CtEFgUdeINlHr0Mmkfx9k9YvVV1CPWpRAs9Yt1DiZjDIZjdtiykwZKIRCdssROd+3wXEUDDJHFeg4CifJ7PQk9YvHoe6VtzOc3UbCjHrFKIPgi5FYYqT0Ii1ss1CV2LtKq/oRUilX7+zczlYk1x6cdlnNjPr+rBH+PKtZ6CHqFdd4jteHI2UpZ4mOAVrk0hWItgUAwS+VgaY84zq4oWOpgsYbCiqUxiXWWR96gKhlSK7JYL0AgeFPV453Kk493YsW245qIA6TbcSNy8HzdlwzBJVGP+yUEchdFyZBakcW6HQJbUD8n4bkOvvyjcn7c5/b7Jt7t/kc6YyFwYBBG479xIe6qWzF+JcZAkI/p/uHd0PYoLF7pQE0SVOutFIhVhlYQDFOg1RsBU2jiopv4SpM68n508FhWUpGMqRVJrN9A0ARrktYqcNJfvFiWn+HencSxZ0Igl1CQjKm1IEysebDBhtlKpyknQC+LZ3zCx96EQo9tFeXIoFqPQ5CPXf5Pa3ELLOiAJUlr9U7AixUJ8qTVl9h5lWOw11p98kESSbtayzAJDggEFrRHV3RGCUZgdsiPqyTS3oXuksuSPKtc26eFnkRe2L8PAhlFLVTwk+S78eraKmjVSl5laGfb2dodr1q/hkAepxKNTq0P4KySqxSdVbFth9Md+3jaXoyCQJ6mDkrV0o9mXq0PUeCSYQrPqqV9jcV3d5Tf3gm9Up7jtrplPFVodGqthrPadp3is7LJFGvNGe7Suq8YkY98vc8C+3fxjvGTGNXKq/r/jGn1CZq6bCNTcl4l1iUWr+65CQuxOeiYFfgIj6Ov2wL7fpnAlWYaoVrr0MxluzmFZ1YipTk7BYKWNRe4B+NaXOLrUpPnEVjdtpVyM19PTfngQ25V3rH0N3uN7ZY0nN1ZcqtMk0Xyju19eUvmyoNyBSfzpQtdmmWgcVUqQgghhBBCCCGEEEIIIYQQQgghhBBCCCGEEEIIIYQQQgghhBBCCCGEEEIIIYQQQgghhBBCCCGEEEIIIYQQQgghhBBCCCGZ4D+Yx2fVlhNK9wAAAABJRU5ErkJggg==;" vertex="1" parent="3yyfKTXszkOxgrwp_yNW-58">
          <mxGeometry width="257" height="257" as="geometry" />
        </mxCell>
        <mxCell id="3yyfKTXszkOxgrwp_yNW-65" value="" style="endArrow=none;html=1;rounded=0;" edge="1" parent="3yyfKTXszkOxgrwp_yNW-58">
          <mxGeometry width="50" height="50" relative="1" as="geometry">
            <mxPoint x="-100" y="53" as="sourcePoint" />
            <mxPoint x="1" y="53" as="targetPoint" />
          </mxGeometry>
        </mxCell>
        <mxCell id="3yyfKTXszkOxgrwp_yNW-74" value="G&lt;sub&gt;2&lt;/sub&gt;" style="edgeLabel;html=1;align=center;verticalAlign=middle;resizable=0;points=[];fontSize=12;" vertex="1" connectable="0" parent="3yyfKTXszkOxgrwp_yNW-65">
          <mxGeometry relative="1" as="geometry">
            <mxPoint as="offset" />
          </mxGeometry>
        </mxCell>
        <mxCell id="3yyfKTXszkOxgrwp_yNW-66" value="" style="endArrow=none;html=1;rounded=0;" edge="1" parent="3yyfKTXszkOxgrwp_yNW-58">
          <mxGeometry width="50" height="50" relative="1" as="geometry">
            <mxPoint x="-100" y="78.5" as="sourcePoint" />
            <mxPoint x="1" y="78" as="targetPoint" />
          </mxGeometry>
        </mxCell>
        <mxCell id="3yyfKTXszkOxgrwp_yNW-75" value="F&lt;sub&gt;2&lt;/sub&gt;" style="edgeLabel;html=1;align=center;verticalAlign=middle;resizable=0;points=[];fontSize=12;" vertex="1" connectable="0" parent="3yyfKTXszkOxgrwp_yNW-66">
          <mxGeometry relative="1" as="geometry">
            <mxPoint as="offset" />
          </mxGeometry>
        </mxCell>
        <mxCell id="3yyfKTXszkOxgrwp_yNW-67" value="" style="endArrow=none;html=1;rounded=0;" edge="1" parent="3yyfKTXszkOxgrwp_yNW-58">
          <mxGeometry width="50" height="50" relative="1" as="geometry">
            <mxPoint x="-100" y="103.5" as="sourcePoint" />
            <mxPoint x="1" y="103" as="targetPoint" />
          </mxGeometry>
        </mxCell>
        <mxCell id="3yyfKTXszkOxgrwp_yNW-76" value="E&lt;sub&gt;2&lt;/sub&gt;" style="edgeLabel;html=1;align=center;verticalAlign=middle;resizable=0;points=[];fontSize=12;" vertex="1" connectable="0" parent="3yyfKTXszkOxgrwp_yNW-67">
          <mxGeometry relative="1" as="geometry">
            <mxPoint as="offset" />
          </mxGeometry>
        </mxCell>
        <mxCell id="3yyfKTXszkOxgrwp_yNW-68" value="" style="endArrow=none;html=1;rounded=0;" edge="1" parent="3yyfKTXszkOxgrwp_yNW-58">
          <mxGeometry width="50" height="50" relative="1" as="geometry">
            <mxPoint x="-100" y="128.5" as="sourcePoint" />
            <mxPoint x="1" y="128" as="targetPoint" />
          </mxGeometry>
        </mxCell>
        <mxCell id="3yyfKTXszkOxgrwp_yNW-77" value="D&lt;sub&gt;2&lt;/sub&gt;" style="edgeLabel;html=1;align=center;verticalAlign=middle;resizable=0;points=[];fontSize=12;" vertex="1" connectable="0" parent="3yyfKTXszkOxgrwp_yNW-68">
          <mxGeometry relative="1" as="geometry">
            <mxPoint as="offset" />
          </mxGeometry>
        </mxCell>
        <mxCell id="3yyfKTXszkOxgrwp_yNW-69" value="" style="endArrow=none;html=1;rounded=0;" edge="1" parent="3yyfKTXszkOxgrwp_yNW-58">
          <mxGeometry width="50" height="50" relative="1" as="geometry">
            <mxPoint x="-100" y="153.5" as="sourcePoint" />
            <mxPoint x="1" y="153" as="targetPoint" />
          </mxGeometry>
        </mxCell>
        <mxCell id="3yyfKTXszkOxgrwp_yNW-78" value="C&lt;sub&gt;2&lt;/sub&gt;" style="edgeLabel;html=1;align=center;verticalAlign=middle;resizable=0;points=[];fontSize=12;" vertex="1" connectable="0" parent="3yyfKTXszkOxgrwp_yNW-69">
          <mxGeometry relative="1" as="geometry">
            <mxPoint as="offset" />
          </mxGeometry>
        </mxCell>
        <mxCell id="3yyfKTXszkOxgrwp_yNW-70" value="" style="endArrow=none;html=1;rounded=0;" edge="1" parent="3yyfKTXszkOxgrwp_yNW-58">
          <mxGeometry width="50" height="50" relative="1" as="geometry">
            <mxPoint x="-100" y="178.5" as="sourcePoint" />
            <mxPoint x="1" y="178" as="targetPoint" />
          </mxGeometry>
        </mxCell>
        <mxCell id="3yyfKTXszkOxgrwp_yNW-79" value="B&lt;sub&gt;2&lt;/sub&gt;" style="edgeLabel;html=1;align=center;verticalAlign=middle;resizable=0;points=[];fontSize=12;" vertex="1" connectable="0" parent="3yyfKTXszkOxgrwp_yNW-70">
          <mxGeometry relative="1" as="geometry">
            <mxPoint as="offset" />
          </mxGeometry>
        </mxCell>
        <mxCell id="3yyfKTXszkOxgrwp_yNW-71" value="" style="endArrow=none;html=1;rounded=0;" edge="1" parent="3yyfKTXszkOxgrwp_yNW-58">
          <mxGeometry width="50" height="50" relative="1" as="geometry">
            <mxPoint x="-100" y="203.5" as="sourcePoint" />
            <mxPoint x="1" y="203" as="targetPoint" />
          </mxGeometry>
        </mxCell>
        <mxCell id="3yyfKTXszkOxgrwp_yNW-80" value="A&lt;sub&gt;2&lt;/sub&gt;" style="edgeLabel;html=1;align=center;verticalAlign=middle;resizable=0;points=[];fontSize=12;" vertex="1" connectable="0" parent="3yyfKTXszkOxgrwp_yNW-71">
          <mxGeometry relative="1" as="geometry">
            <mxPoint as="offset" />
          </mxGeometry>
        </mxCell>
        <mxCell id="3yyfKTXszkOxgrwp_yNW-61" value="" style="group" vertex="1" connectable="0" parent="3yyfKTXszkOxgrwp_yNW-64">
          <mxGeometry y="250" width="257" height="257" as="geometry" />
        </mxCell>
        <mxCell id="3yyfKTXszkOxgrwp_yNW-62" value="" style="whiteSpace=wrap;html=1;aspect=fixed;" vertex="1" parent="3yyfKTXszkOxgrwp_yNW-61">
          <mxGeometry width="255" height="255" as="geometry" />
        </mxCell>
        <mxCell id="3yyfKTXszkOxgrwp_yNW-63" value="" style="shape=image;verticalLabelPosition=bottom;labelBackgroundColor=default;verticalAlign=top;aspect=fixed;imageAspect=0;image=data:image/png,iVBORw0KGgoAAAANSUhEUgAAASwAAAEsCAQAAADTdEb+AAAAAmJLR0QA/4ePzL8AABFLSURBVHja7Z1pmBTVvcb/vcwwU9U9wyI7g4ODyi4QEROuivoIiOIGNwqKBMWoCGiMkRi9KNEhirnggihwg4KRCy6QCAomMYoRRIwRIy7sqwPMFIvM9ADTy5sP0wy9zvRyurt6eH/nC108VL3l/2fV6VOnTosQQgghhBBCCCGEEEIIIYQQQgghhBBCCCGEEEIIIYQQQgghhBBCCCGEEEIIIYQQQgghhBBCCCGEEEIIIYQQQgghhBBCCCGEEEIIIYQQQgghhBBCUoVV7pLJGWi/FJ3/8RuxVvprPV2TkP52+QnnOslnARonFucrvat2wchAK8fwYwVrJI9FaJRa9cmQVgYMHMD1x5wfUy1qlQK1rnY5VksTFoNaKVdrqKvgPclhQRqLVgvMoJUBA/twWXXBSrGzKNRKcSvDwCp9BdWiVilQ6+Iq/W2xsTjZPG61WKVW/bBDyX72or+rYIlYWSBqBQNLIZimaF970M/lWES1qBUMDIagBBXK1OpbqS8UCwuVdVr1danU6p/QYYXgdWV73I0+lY45LNVprZWBn2MshkBwhcJ97kA3l2M2y3Uaa7UTTqzFGxBY8bnC/W5Hl0rteZbsNNXKQCkGwkAFOkMwXumet+HcqvxnWTbzMy7PvVn53IRiLIIBA9MgaIo9Sve+FlafDGThTsMr1h/RCeX+XpEOwQxesU4rnOJMzUDDRSit+/PPIOiWmj7WyfzEVBQ4Njg2SIF6tf4BO4rR2d86QiB4W/23wsD8xDQ0dXw15tjY486N0lS1WqNxZ9Dn/hBco3ocKzQ/MYlWG8cdq4CBCccdm6SFiCh7/LwZesgAw3wI7Pi3ypH3SPlJxmnm/ObOEycLdl+Nc4ucoU6tybgqbLpeawgmqntWGC0/ySgtHVvvORFYtPtr9J3SVo1aX6EA08O23gBBfhIDpUGzG+rLTzJGK8e2CSdCC/dwjb5b2vnVSmJScimKIGiHSdhUt+1bTEIBBIJWmIiyZOdjNZSfZITW+o5fnYhUvEdq9D3SPnm1UjyDNJb8JO20ceyaXBOtgI+6HXulg9nUCprzHmt+klY66t8/5K6viFM92gHpdFKt3mZ7Syee/CRtnKmVPeFuqJDT3doBKTGLWkHvFcabn6SFYn3/NE8sxZzh1SuksxnUCnoTOpH8JOWcrRlPeWIt6DNe7ZB086v1sinWbkg0P0kp52rGs954ivqSVzsk3UVExKq/1rtqCtLfhhyvW20mmfwkZXTRDs7yxHu9mOvVDkvPWrXkfnkyA22qf32sZPOTlNBVPzTbl8it6A8+/Yj0Yn4Skdyj832J9nLm+3KPMj+JTFIdaAHzE4pFsVgYikWxmJ9QLIrFwlAsisX8hGJRLBaGYlEs5icUi2KxMBSLYjE/oVgUi4WhWI1CrLcwARoEVhShCEVoDx0CwYosEGsZ7vW/U52HEpyHjijBcLxBsczyf/xjELSs+1SBN9E04qLZZrxilUKg1X1agW4Q/BT7KZYZxHopSCwDBp7EgiwR69UgsQxsQSsIfkuxzCDWvDCxtmB1loi1KEQsA3dC0J1imVOs7Om8h4s1HoJWFMt8Yq3AwiwWaw86QjCEYplNrO8wKAvFOuB/Cf89/BiCZviYYplFLEEucpELgWSdWIIW6IKOsEMgGITPONxgvivWZlyetbfCnXgZXZGLYdhAsczXx/pLVvexytAXgtb4jmKZTaxdURfKzo5vhUshEDxAsTjcoFasnRAIhlEsiqVWrM8hUX66jmKlWaw5ELTIUrEWhIl1GwRWrKFYmRdrCgR27MhKsX4LQX5d9q8wFgIbZvJbYaYL8xYmwgGBoCemRPwuZeZpMxP9k3wErXE2OqAAXXAL/sFxLHNcsTjRj1AsikWxmJ9iUSxCsSgWxWJ+ikWxCMWiWBSL+SkWxSIUi2JRLOanWBSLJIDV82HCZfkQVg/zk4jYhjuq/5ZgWZzVtpHMT6KWRq9+P4vLku35G/lV6/34yzLK/8/75FQK0t+sHtt1SvITs6gVVJbe2pGFPgPpbx+iwCXDks5PzKJWiFY/ZEYrAwY+gMMlVyWVn5hFrdWm0cqAgVXQquXKhPOTNKk1oqHSmEsrAwbehe6SSxPKT8yilvm0MmDgHWhVMjDu/MQsaplTq9qF4bQquTiu/MQsaq1GoUm1MmDgTWiV0j/m/MQsaq1GYbXt5pPjVmbTyoCB16FVSr+Y8pNMqlXoOrVK8lo0dQVq9aoCrT7BPeiFruiJ3rgac7AZY5NVy5d/VH7UYH6SebU+SpFWB/ALWDEa6/yf12AYBMVJy7rAl3dU+tabn5hFrVRodTkET4dsvQ1OBTfEV3zaEekRNT8xiVo3FroKXbYb1d4E74fghrCt+9AJZQrUmu/TDku3iPmJmdRSrdX7sELwSYS/eb6BlW1ibfO82iHpGpafmBJFWhkYDkGXFH9DfM6rG1LCopmf8/OPLlKiVQUKIBiR8sGH//Xq5VLMwpleLO0HNWJ9BYHg50HbtuLXGILLcBkG4SGKxVthIq12mdmRYdtfhkDwBG+Fpw35kq9SrV2wQHBJ2PavIRAsV955D8hPTITmXOtcK5pKtXpBoGFPyNZNEAhWKR5uCMlPTIKufzq8esSxgvWin1Ir2aeET0MgmJsisQIHSCPkJ2bQyrnup9XlqMDoascXUuDfmvS8hjL0hKAjdqdArMBHOlHykwxT6Phy5LFy/xDBz447vpFmqtT6F86E4JqgcXYVYgU+hK4nP8moVv+++VhFwOjT7ccd30rzOrWSfC/nawyBoA8Wo8L/U5uTIWiB9YqmzTSQn2SIpo6N4wLKUtsmHHdskhaqrloGVmE8eqEYPXAWSnAtXsReRRP9YshPMkAz5zd3nohUvPtqnFvkDHVqpWZqcoz5SZpp6dh6z4mo8xJq9J3S1mxqBb5MEUd+kkZaObZNOFFfER+u0XdLO1V9LdWvf8WZn6SJ1vqOB040VMiHa/Q90t4sagW+sJpAfpIG2jh2Ta6JpZiPuh17pcMptRaY4hX7BPOTFFOkf/+QO9aCTvVoB6RTptUKXBQkifwkhXTUyp6oiaeo093agbr5A31yM7yMUZL5SYoo1vZNc8d7vZjh0cqlM/OTaJytGU96ErkVzfRqh+rmETA/CSbv4LPeRHs5z3rzDjI/iQyX4yYsDMWiWMxPsSgWYWEoFsVifopFsQgLQ7EoFvNTLIpFWBiKRbGYn2JRLMLCUCyKxfwUaxUeRHsIBEX+1h4OCC7MOrGW4yYUozV6oh8ewga8i99QrMwW5v8gEOwPWPtgBnpklVg7cR1smIgvYcDAXryAtrDhboqV2cIsDxHLgIGhWSTWdpwDK14N2vYl2uEmipXZwqyIINZrWSTWNRDcGrZ1MYZQLPOJlT2d98UQCD6LkHYcxTKXWN9EXc/YjGINheCsiGk3USwzifU97sgqsQogUXqEHG4whVid0RmdUQx7PSuwm0+s2kUnR1Ms81+xdmB4Fom1EQLBHRQrG/pYH2eRWN/DCsH1FCsbxNoXdT1jM/axukPQnWJxuEF1/kcgEHweIe1uVFAs84k1PoJqZhRrO9pGvBnuw+1hv+FKsdIq1tsQCPYFbVuCMVkz8r4C+RBMDro+lWEkVvNWmNnCvBgydl2BhSjEn7PoIfRyFEHQHy9hPbbjn5iJgRH7iRQrbYVZhQfQAgKBhmIUoxhF0CBog/KsmjazB0/hIrRGLlrjQkzHTnbezVEYTvQjFItiUSzmp1gUi1AsikWxmJ9iUSxCsSgWxWJ+ikWxCMWiWBQr2/LbpYCyUCxV+fvIryx/zt1mcdf+lJ39SM5n8qKMlGYUpwEsvnUJl2UdLL5Gm98pv8jZIsj1/sQzDtMwE3MwA5MxAmfWCKw1tmVyMe2ph9xRTavXJFSWT9HClXdbo8yfI/fafrD6rvUtCptzasDABkxFJ7fA/pGcR4MUl2a9KbRKSf5z7F9YcKPvi3r/fTnmo8ht8cijYqdDykoTVJYu2r4m1elveT/I5UryBzPY5mrnXhHTXsowARaf7a/s1itSK6gsXbWDszxbkf62DLpLBiadP5gRFs8A77Y4FH0NeR77BmlKh5JWK6gs52oHZ3kMZKatgFYVv1r1aDXI4hnsLYszxXvI99jWSRM6FIWc22IpzXo0r865+5RWL3gzpVWdWhcnnD+YYtuRCzxlCaRYCptP5tKgJNQyl1YGDLwJrVL6J5Q/ZNzC9kEzz9cJpngMAhlKgxJUy3xaGTDwOrRK6Rd3/lBGCeYlnKEcfT223ZJLgxJQy5xaGTCwxJd/VH4UV/5QbLYt5yfVV1wJgdxNfxpQa20WaWXAwAJf3lHpG3P+cK4ULE4yw3957ZtoT/1q3R5amvVoXp0z/qRW+qHZPjNpZcDAKz7tiHSPKX8kFrdxl/tf2B0HQR4G4AYMQg+MxF/qrkljIdBxEQagOx4OG5OfB4FcQHviUCtUqxcT1GoZ7kUhah/n5qMNmqEEgzEVG5WoNd+nHZZuDeaPfCM8ckfAsKfgCv+fv8VQWOt+eGAXBFfCgIFZEFwdtpZNjlem0J2Y1VKlVW37HQR5+BcMGNiPP2EQBE3wmBK15nm1Q9K13vyR6SV4JWA/tjqxDJTjUpz625Ni1a7C9deQ4/fzWv5Gc2JUK6gsXZLVysCrEGhBW56CBYL7laj1nFc3pCRq/mjcJFgfRSwDawIWcjsl1vUQzA85+hjYD9CbWNQa19zVwpUzTp1WBhaFiWVgEgQWLFei1jNevUI6RcwfnV9KUI8pWCwDneoWcjsl1nkQhH5F+B+IT2z0Jia11GoVWaw9aA7BAEXd+BkerVyKw/LXx2P2oDMLFWsgBMuCxHoGglvCjjwdAj41jA9FWkUWy8CtEFgUdeINlHr0Mmkfx9k9YvVV1CPWpRAs9Yt1DiZjDIZjdtiykwZKIRCdssROd+3wXEUDDJHFeg4CifJ7PQk9YvHoe6VtzOc3UbCjHrFKIPgi5FYYqT0Ii1ss1CV2LtKq/oRUilX7+zczlYk1x6cdlnNjPr+rBH+PKtZ6CHqFdd4jteHI2UpZ4mOAVrk0hWItgUAwS+VgaY84zq4oWOpgsYbCiqUxiXWWR96gKhlSK7JYL0AgeFPV453Kk493YsW245qIA6TbcSNy8HzdlwzBJVGP+yUEchdFyZBakcW6HQJbUD8n4bkOvvyjcn7c5/b7Jt7t/kc6YyFwYBBG479xIe6qWzF+JcZAkI/p/uHd0PYoLF7pQE0SVOutFIhVhlYQDFOg1RsBU2jiopv4SpM68n508FhWUpGMqRVJrN9A0ARrktYqcNJfvFiWn+HencSxZ0Igl1CQjKm1IEysebDBhtlKpyknQC+LZ3zCx96EQo9tFeXIoFqPQ5CPXf5Pa3ELLOiAJUlr9U7AixUJ8qTVl9h5lWOw11p98kESSbtayzAJDggEFrRHV3RGCUZgdsiPqyTS3oXuksuSPKtc26eFnkRe2L8PAhlFLVTwk+S78eraKmjVSl5laGfb2dodr1q/hkAepxKNTq0P4KySqxSdVbFth9Md+3jaXoyCQJ6mDkrV0o9mXq0PUeCSYQrPqqV9jcV3d5Tf3gm9Up7jtrplPFVodGqthrPadp3is7LJFGvNGe7Suq8YkY98vc8C+3fxjvGTGNXKq/r/jGn1CZq6bCNTcl4l1iUWr+65CQuxOeiYFfgIj6Ov2wL7fpnAlWYaoVrr0MxluzmFZ1YipTk7BYKWNRe4B+NaXOLrUpPnEVjdtpVyM19PTfngQ25V3rH0N3uN7ZY0nN1ZcqtMk0Xyju19eUvmyoNyBSfzpQtdmmWgcVUqQgghhBBCCCGEEEIIIYQQQgghhBBCCCGEEEIIIYQQQgghhBBCCCGEEEIIIYQQQgghhBBCCCGEEEIIIYQQQgghhBBCCCGZ4D+Yx2fVlhNK9wAAAABJRU5ErkJggg==;" vertex="1" parent="3yyfKTXszkOxgrwp_yNW-61">
          <mxGeometry width="257" height="257" as="geometry" />
        </mxCell>
        <mxCell id="3yyfKTXszkOxgrwp_yNW-99" value="" style="endArrow=none;html=1;rounded=0;" edge="1" parent="1">
          <mxGeometry width="50" height="50" relative="1" as="geometry">
            <mxPoint x="570" y="667.9299999999998" as="sourcePoint" />
            <mxPoint x="570" y="667.93" as="targetPoint" />
          </mxGeometry>
        </mxCell>
        <mxCell id="3yyfKTXszkOxgrwp_yNW-100" value="" style="endArrow=none;html=1;rounded=0;" edge="1" parent="1">
          <mxGeometry width="50" height="50" relative="1" as="geometry">
            <mxPoint x="570" y="642.9299999999998" as="sourcePoint" />
            <mxPoint x="570" y="642.93" as="targetPoint" />
          </mxGeometry>
        </mxCell>
        <mxCell id="3yyfKTXszkOxgrwp_yNW-101" value="" style="endArrow=none;html=1;rounded=0;" edge="1" parent="1">
          <mxGeometry width="50" height="50" relative="1" as="geometry">
            <mxPoint x="570" y="717.93" as="sourcePoint" />
            <mxPoint x="570" y="717.93" as="targetPoint" />
          </mxGeometry>
        </mxCell>
        <mxCell id="3yyfKTXszkOxgrwp_yNW-102" value="" style="endArrow=none;html=1;rounded=0;" edge="1" parent="1">
          <mxGeometry width="50" height="50" relative="1" as="geometry">
            <mxPoint x="570" y="692.9299999999998" as="sourcePoint" />
            <mxPoint x="570" y="692.93" as="targetPoint" />
          </mxGeometry>
        </mxCell>
        <mxCell id="3yyfKTXszkOxgrwp_yNW-103" value="" style="endArrow=none;html=1;rounded=0;" edge="1" parent="1">
          <mxGeometry width="50" height="50" relative="1" as="geometry">
            <mxPoint x="470" y="540.93" as="sourcePoint" />
            <mxPoint x="571" y="540.93" as="targetPoint" />
          </mxGeometry>
        </mxCell>
        <mxCell id="3yyfKTXszkOxgrwp_yNW-104" value="G&lt;sub&gt;1&lt;/sub&gt;" style="edgeLabel;html=1;align=center;verticalAlign=middle;resizable=0;points=[];fontSize=12;" vertex="1" connectable="0" parent="3yyfKTXszkOxgrwp_yNW-103">
          <mxGeometry relative="1" as="geometry">
            <mxPoint as="offset" />
          </mxGeometry>
        </mxCell>
        <mxCell id="3yyfKTXszkOxgrwp_yNW-105" value="" style="endArrow=none;html=1;rounded=0;" edge="1" parent="1">
          <mxGeometry width="50" height="50" relative="1" as="geometry">
            <mxPoint x="470" y="566.43" as="sourcePoint" />
            <mxPoint x="571" y="565.93" as="targetPoint" />
          </mxGeometry>
        </mxCell>
        <mxCell id="3yyfKTXszkOxgrwp_yNW-106" value="F&lt;sub&gt;1&lt;/sub&gt;" style="edgeLabel;html=1;align=center;verticalAlign=middle;resizable=0;points=[];fontSize=12;" vertex="1" connectable="0" parent="3yyfKTXszkOxgrwp_yNW-105">
          <mxGeometry relative="1" as="geometry">
            <mxPoint as="offset" />
          </mxGeometry>
        </mxCell>
        <mxCell id="3yyfKTXszkOxgrwp_yNW-107" value="" style="endArrow=none;html=1;rounded=0;" edge="1" parent="1">
          <mxGeometry width="50" height="50" relative="1" as="geometry">
            <mxPoint x="470" y="591.43" as="sourcePoint" />
            <mxPoint x="571" y="590.93" as="targetPoint" />
          </mxGeometry>
        </mxCell>
        <mxCell id="3yyfKTXszkOxgrwp_yNW-108" value="E&lt;sub&gt;1&lt;/sub&gt;" style="edgeLabel;html=1;align=center;verticalAlign=middle;resizable=0;points=[];fontSize=12;" vertex="1" connectable="0" parent="3yyfKTXszkOxgrwp_yNW-107">
          <mxGeometry relative="1" as="geometry">
            <mxPoint as="offset" />
          </mxGeometry>
        </mxCell>
        <mxCell id="3yyfKTXszkOxgrwp_yNW-109" value="" style="endArrow=none;html=1;rounded=0;" edge="1" parent="1">
          <mxGeometry width="50" height="50" relative="1" as="geometry">
            <mxPoint x="470" y="616.43" as="sourcePoint" />
            <mxPoint x="571" y="615.93" as="targetPoint" />
          </mxGeometry>
        </mxCell>
        <mxCell id="3yyfKTXszkOxgrwp_yNW-110" value="D&lt;sub&gt;1&lt;/sub&gt;" style="edgeLabel;html=1;align=center;verticalAlign=middle;resizable=0;points=[];fontSize=12;" vertex="1" connectable="0" parent="3yyfKTXszkOxgrwp_yNW-109">
          <mxGeometry relative="1" as="geometry">
            <mxPoint as="offset" />
          </mxGeometry>
        </mxCell>
        <mxCell id="3yyfKTXszkOxgrwp_yNW-111" value="" style="endArrow=none;html=1;rounded=0;" edge="1" parent="1">
          <mxGeometry width="50" height="50" relative="1" as="geometry">
            <mxPoint x="470" y="641.43" as="sourcePoint" />
            <mxPoint x="571" y="640.93" as="targetPoint" />
          </mxGeometry>
        </mxCell>
        <mxCell id="3yyfKTXszkOxgrwp_yNW-112" value="C&lt;sub&gt;1&lt;/sub&gt;" style="edgeLabel;html=1;align=center;verticalAlign=middle;resizable=0;points=[];fontSize=12;" vertex="1" connectable="0" parent="3yyfKTXszkOxgrwp_yNW-111">
          <mxGeometry relative="1" as="geometry">
            <mxPoint as="offset" />
          </mxGeometry>
        </mxCell>
        <mxCell id="3yyfKTXszkOxgrwp_yNW-113" value="" style="endArrow=none;html=1;rounded=0;" edge="1" parent="1">
          <mxGeometry width="50" height="50" relative="1" as="geometry">
            <mxPoint x="470" y="666.43" as="sourcePoint" />
            <mxPoint x="571" y="665.93" as="targetPoint" />
          </mxGeometry>
        </mxCell>
        <mxCell id="3yyfKTXszkOxgrwp_yNW-114" value="B&lt;sub&gt;1&lt;/sub&gt;" style="edgeLabel;html=1;align=center;verticalAlign=middle;resizable=0;points=[];fontSize=12;" vertex="1" connectable="0" parent="3yyfKTXszkOxgrwp_yNW-113">
          <mxGeometry relative="1" as="geometry">
            <mxPoint as="offset" />
          </mxGeometry>
        </mxCell>
        <mxCell id="3yyfKTXszkOxgrwp_yNW-115" value="" style="endArrow=none;html=1;rounded=0;" edge="1" parent="1">
          <mxGeometry width="50" height="50" relative="1" as="geometry">
            <mxPoint x="470" y="691.43" as="sourcePoint" />
            <mxPoint x="571" y="690.93" as="targetPoint" />
          </mxGeometry>
        </mxCell>
        <mxCell id="3yyfKTXszkOxgrwp_yNW-116" value="A&lt;sub&gt;1&lt;/sub&gt;" style="edgeLabel;html=1;align=center;verticalAlign=middle;resizable=0;points=[];fontSize=12;" vertex="1" connectable="0" parent="3yyfKTXszkOxgrwp_yNW-115">
          <mxGeometry relative="1" as="geometry">
            <mxPoint as="offset" />
          </mxGeometry>
        </mxCell>
      </root>
    </mxGraphModel>
  </diagram>
</mxfile>
